<svg xmlns="http://www.w3.org/2000/svg" viewBox="0 0 24 24" fill="currentColor">
  <path d="M12 2.25c1.78 1.77 3.17 4.02 4.02 6.4C17.23 5.8 19.5 3 21.75 3c.45 0 .75.1 1.05.3.54.35.69 1.04.48 1.77-.75 2.62-2.91 4.91-5.46 6.36 1.02.63 2 1.44 2.86 2.44 1.43 1.71 2.82 4.44 1.32 5.94-1.5 1.5-4.23.11-5.94-1.32-.99-.82-1.82-1.8-2.44-2.86-.45.72-1.02 1.56-1.7 2.44-1.43 1.71-4.44 2.82-5.94 1.32-1.5-1.5-.11-4.23 1.32-5.94.82-.99 1.8-1.82 2.86-2.44-2.55-1.45-4.71-3.74-5.46-6.36-.21-.73-.06-1.42.48-1.77.3-.2.6-.3 1.05-.3 2.25 0 4.52 2.8 5.73 5.65C8.83 6.27 10.22 4.02 12 2.25Z"/>
</svg>
