<svg xmlns="http://www.w3.org/2000/svg" viewBox="0 0 120 24" fill="#C9A84C" width="120" height="24">
  <path d="M12 2l2.4 7.4H22l-6.2 4.5 2.4 7.4L12 17l-6.2 4.3 2.4-7.4L2 9.4h7.6L12 2z"/>
  <path d="M36 2l2.4 7.4H46l-6.2 4.5 2.4 7.4L36 17l-6.2 4.3 2.4-7.4L26 9.4h7.6L36 2z"/>
  <path d="M60 2l2.4 7.4H70l-6.2 4.5 2.4 7.4L60 17l-6.2 4.3 2.4-7.4L50 9.4h7.6L60 2z"/>
  <path d="M84 2l2.4 7.4H94l-6.2 4.5 2.4 7.4L84 17l-6.2 4.3 2.4-7.4L74 9.4h7.6L84 2z"/>
  <path d="M108 2l2.4 7.4H118l-6.2 4.5 2.4 7.4L108 17l-6.2 4.3 2.4-7.4L98 9.4h7.6L108 2z"/>
</svg>
