<svg viewBox="0 0 273 316" fill="none" xmlns="http://www.w3.org/2000/svg">
  <path d="M215.021,112.817c-15.392,7.687 -28.9,18.404 -38,33.133c-14.813,23.967 -21.363,49.679 -21.779,73.521l-5.059,-0c-1.025,-7.95 -1.625,-16.792 -1.279,-26.942c5.738,-76.121 29.2,-71.629 29.2,-95.304c0,-37.375 -18.362,-67.4 -39.462,-91.971c-1.417,-2.604 -1.417,-2.604 -2.446,-5.254c-0,0 -0.842,2.346 -2.446,5.254c-21.1,24.571 -39.462,54.596 -39.462,91.971c-0,23.675 23.462,19.183 29.2,95.304c0.345,10.15 -0.255,18.992 -1.28,26.942l-5.058,-0c-0.417,-23.842 -6.967,-49.554 -21.779,-73.521c-9.1,-14.729 -22.608,-25.446 -38,-33.133c-29.371,-18.775 -57.379,4.629 -57.371,33.254c0.013,49.171 47.913,66.629 57.558,67.433c-15.762,-9.362 -18.225,-28.512 -3.641,-34.754c8.2,-3.508 30.65,2.862 40.058,40.721l-15.625,-0l0,18.708l18.758,0c1.48,25.825 -18.508,71.646 -56.004,50.254c4.85,16.188 38.25,23.7 55.425,1.521c10.125,-13.075 17.2,-31.25 19.675,-51.775l2.696,0c-2.55,11.8 -5.196,21.65 -5.217,31.508c-0.033,18.363 12.713,34.78 20.009,42.746l2.504,2.65l2.433,-2.57c7.284,-7.938 20.113,-24.405 20.079,-42.825c-0.02,-9.859 -2.666,-19.709 -5.216,-31.509l2.696,0c2.475,20.525 9.55,38.7 19.675,51.775c17.175,22.179 50.575,14.667 55.425,-1.521c-37.496,21.392 -57.484,-24.429 -56.005,-50.254l18.759,0l-0,-18.708l-15.625,-0c9.408,-37.858 31.854,-44.229 40.058,-40.721c14.583,6.242 12.121,25.392 -3.646,34.754c9.65,-0.804 57.55,-18.262 57.563,-67.433c0.008,-28.625 -28,-52.029 -57.371,-33.254Z" fill="#ffffff"/>
</svg>
