<svg width="64" height="64" viewBox="0 0 64 64" fill="none" xmlns="http://www.w3.org/2000/svg">
	<!-- Document -->
	<rect x="16" y="8" width="32" height="48" rx="2" fill="currentColor" opacity="0.2"/>

	<!-- Document header -->
	<rect x="20" y="14" width="24" height="6" rx="1" fill="currentColor"/>

	<!-- Document lines -->
	<rect x="20" y="26" width="20" height="2" rx="1" fill="currentColor" opacity="0.5"/>
	<rect x="20" y="32" width="24" height="2" rx="1" fill="currentColor" opacity="0.5"/>
	<rect x="20" y="38" width="18" height="2" rx="1" fill="currentColor" opacity="0.5"/>
	<rect x="20" y="44" width="22" height="2" rx="1" fill="currentColor" opacity="0.5"/>

	<!-- Seal/stamp -->
	<circle cx="32" cy="50" r="4" fill="currentColor"/>
	<circle cx="32" cy="50" r="2.5" fill="white" opacity="0.3"/>

	<!-- Ribbon -->
	<path d="M28 50L26 56L28 54L30 56L28 50Z" fill="currentColor"/>
	<path d="M36 50L34 56L36 54L38 56L36 50Z" fill="currentColor"/>

	<!-- Feather quill accent -->
	<path d="M42 16L46 12C46 12 47 13 46 14L44 16L42 16Z" fill="currentColor" opacity="0.6"/>
</svg>
